# xmcd CD database file
#
# Track frame offsets:
#	150
#	12528
#	25253
#	42732
#	61019
#	79174
#	94703
#	113396
#	129261
#	148578
#	159544
#	171466
#	186223
#
# Disc length: 2638 seconds
#
# Revision: 0
# Processed by: cddbd v1.5.2PL0 Copyright (c) Steve Scherf et al.
# Submitted via: CDex 1.51
#
DISCID=a80a4c0d
DTITLE=Melissa Kellie - Country Album
DYEAR=2011
DGENRE=Country
TTITLE0=Gallaries of Pink Galahs
TTITLE1=On the Inside
TTITLE2=Unchained Melody
TTITLE3=Help Me Make it Through the Night
TTITLE4=From This Moment On
TTITLE5=Those Were the Days
TTITLE6=Love Me
TTITLE7=When You Say Nothing At All
TTITLE8=Whisky Lullaby
TTITLE9=Going To A Party
TTITLE10=In My Dreams
TTITLE11=Precious Memories
TTITLE12=Ten Little Words
EXTD=YEAR: 2011
EXTT0=
EXTT1=
EXTT2=
EXTT3=
EXTT4=
EXTT5=
EXTT6=
EXTT7=
EXTT8=
EXTT9=
EXTT10=
EXTT11=
EXTT12=
PLAYORDER=
